 <svg  version="1.0" xmlns="http://www.w3.org/2000/svg"  width="100.000000pt" height="100.000000pt" viewBox="0 0 100.000000 100.000000"  preserveAspectRatio="xMidYMid meet">  <g transform="translate(0.000000,100.000000) scale(0.100000,-0.100000)" fill="#ffffff" stroke="white" stroke-width="18"> <path d="M304 930 c-64 -32 -97 -106 -78 -177 5 -18 10 -21 24 -13 15 8 17 18 13 43 -10 63 46 127 109 127 38 0 85 -36 99 -74 8 -23 19 -36 31 -36 46 0 -6 101 -67 130 -52 25 -80 25 -131 0z"/> <path d="M688 840 c-21 -11 -49 -35 -64 -54 l-28 -34 -87 5 c-105 7 -197 -17 -272 -70 -46 -33 -97 -94 -97 -116 0 -17 -18 -13 -40 9 -26 26 -25 58 1 86 22 23 19 44 -6 44 -22 0 -55 -50 -55 -86 0 -34 41 -94 64 -94 9 0 12 -23 12 -77 0 -89 12 -120 76 -189 33 -36 38 -46 29 -63 -28 -51 -6 -89 62 -111 55 -17 83 -7 97 36 10 30 16 35 34 30 11 -3 54 -6 94 -6 66 0 73 -2 81 -23 17 -43 37 -52 89 -38 66 17 85 37 79 82 -4 32 -1 39 29 63 19 15 46 45 61 67 21 32 31 39 59 39 43 0 54 21 54 103 0 72 -14 93 -64 99 -24 2 -31 9 -38 35 -8 33 -63 96 -106 123 -22 15 -22 16 -8 71 8 30 16 62 18 70 5 21 -33 21 -74 -1z m19 -54 c-3 -7 -8 -34 -12 -59 -6 -41 -5 -46 15 -52 37 -12 98 -74 111 -113 17 -52 27 -62 65 -62 l34 0 0 -60 c0 -60 0 -60 -30 -60 -32 0 -57 -19 -84 -66 -10 -16 -36 -42 -58 -58 -38 -27 -40 -30 -34 -70 6 -40 5 -42 -27 -54 -48 -17 -54 -16 -66 18 -5 17 -16 32 -23 34 -7 3 -62 7 -122 9 l-108 5 -16 -39 c-17 -43 -21 -44 -69 -27 -37 13 -38 15 -21 69 11 39 11 39 -40 92 -64 68 -79 117 -63 202 14 77 52 131 120 172 71 43 145 57 253 49 84 -5 88 -5 99 17 20 40 89 89 76 53z"/> <path d="M702 528 c-25 -25 -6 -68 30 -68 9 0 22 9 28 20 22 40 -26 80 -58 48z"/> </g> </svg> 